<?xml version="1.0" encoding="utf-8"?>
<!-- Generator: Adobe Illustrator 16.0.0, SVG Export Plug-In . SVG Version: 6.00 Build 0)  -->
<!DOCTYPE svg PUBLIC "-//W3C//DTD SVG 1.1//EN" "http://www.w3.org/Graphics/SVG/1.1/DTD/svg11.dtd">
<svg version="1.1" id="Layer_1" xmlns="http://www.w3.org/2000/svg" xmlns:xlink="http://www.w3.org/1999/xlink" x="0px" y="0px"
	 width="600px" height="191px" viewBox="0 0 600 191" enable-background="new 0 0 600 191" xml:space="preserve">
<g id="logo">
	<path fill-rule="evenodd" clip-rule="evenodd" fill="#CB2027" d="M585.623,59.45c-0.756,3.28-1.874,6.413-3.584,9.334
		c-3.314,5.666-7.395,10.714-12.211,15.16c-0.53,0.487-1.373,0.633-2.069,0.937c0.028-0.774-0.19-1.676,0.131-2.297
		c1.179-2.294,2.386-4.604,3.874-6.698c1.438-2.021,1.734-4.236,1.727-6.53c-0.006-1.858-0.369-3.711-0.513-5.574
		c-0.088-1.16-1.008-1.682-1.634-2.459c-3.772-4.681-5.989-10.176-7.893-15.778c-0.813-2.392-1.08-4.967-1.593-7.458
		c-0.019-0.081,0.009-0.18-0.024-0.252c-0.301-0.623-0.608-1.243-0.914-1.862c-0.508,0.449-1.269,0.806-1.481,1.371
		c-1.195,3.124-2.395,6.26-3.33,9.468c-1.293,4.418-1.873,8.973-2.053,13.579c-0.035,0.847,0.344,2.018-0.943,2.322
		c-0.813,0.191-2.082-1.324-2.184-2.487c-0.046-0.464,0.036-0.944-0.03-1.404c-0.085-0.6-0.26-1.188-0.396-1.78
		c-0.137-0.032-0.271-0.064-0.407-0.097c-0.413,0.55-0.946,1.045-1.217,1.659c-1.119,2.523-2.246,5.051-3.199,7.641
		c-0.751,2.036-0.053,4.024,0.716,5.936c0.822,2.05,1.732,4.069,2.52,6.131c0.483,1.267,0.804,2.596,1.245,4.05
		c-0.558-0.297-1.281-0.498-1.747-0.96c-5.217-5.193-10.442-10.371-14.219-16.806c-1.235-2.106-1.581-4.249-1.41-6.595
		c0.767-10.38,4.823-19.396,11.42-27.323c2.23-2.68,4.642-5.215,7.028-7.762c3.584-3.82,5.507-8.275,5.14-13.544
		c-0.121-1.749-0.68-3.467-1.045-5.223c1.234-0.424,2.285,0.145,3.297,0.783c3.004,1.899,5.047,4.678,6.808,7.667
		c3.598,6.111,5.984,12.689,7.05,19.701c0.401,2.631-0.115,5.242-0.824,7.803c-0.267,0.959-0.339,1.975-0.496,2.964
		c0.11,0.069,0.222,0.139,0.333,0.208c0.386-0.255,0.917-0.421,1.141-0.777c1.114-1.793,2.282-3.572,3.183-5.473
		c1.536-3.249,2.688-3.461,5.029-0.648c1.905,2.292,2.84,5.058,3.377,7.905c0.552,2.912,0.771,5.886,1.145,8.834
		c0.041,0.327,0.17,0.646,0.256,0.968C585.623,55.872,585.623,57.661,585.623,59.45z"/>
	<path fill-rule="evenodd" clip-rule="evenodd" fill="#1F1B17" d="M335.075,184.02c-2.506,0.015-5.165-0.63-7.488-1.609
		c-2.882-1.215-3.939-3.871-3.595-6.999c0.308-2.761,2.281-4.042,4.619-4.53c4.205-0.882,5.585-3.766,5.797-7.524
		c0.5-8.73,1.029-17.462,1.298-26.203c0.265-8.603,0.24-17.217,0.303-25.82c0.011-1.516-0.162-3.033-0.307-4.542
		c-0.212-2.223-1.42-3.733-3.441-4.627c-0.199-0.083-0.398-0.174-0.597-0.261c-4.263-1.88-5.849-3.924-5.484-7.07
		c0.353-3.008,3.378-5.637,7.561-6.029c3.728-0.35,7.499-0.285,11.254-0.342c8.385-0.128,16.771-0.14,25.156-0.34
		c8.967-0.22,17.918-0.568,26.81,1.09c16.199,3.018,27.013,12.372,32.127,27.921c4.806,14.607,4.064,29.146-2.683,43.054
		c-6.505,13.409-17.856,20.617-32.202,23.013c-5.713,0.954-11.651,0.577-17.491,0.733C373.82,184.02,346.058,183.947,335.075,184.02
		z M368.159,135.75c0,8.813,0,17.631,0,26.448c0,0.142,0,0.288,0.006,0.434c0.071,5.13,2.051,7.2,7.173,7.483
		c8.973,0.502,15.848-3.98,18.499-12.874c4.164-13.967,3.689-27.997-1.237-41.692c-3.087-8.59-9.424-12.551-18.517-12.488
		c-4.468,0.03-5.91,1.471-5.918,6.023C368.148,117.973,368.159,126.86,368.159,135.75z"/>
	<path fill-rule="evenodd" clip-rule="evenodd" fill="#1F1B17" d="M442.684,183.378c-3.743-0.015-5.697-2.438-4.782-6.1
		c0.435-1.718,1.254-3.397,2.159-4.938c11.439-19.441,22.93-38.852,34.395-58.279c0.66-1.117,1.313-2.258,1.839-3.441
		c0.902-2.033,0.34-3.472-1.622-4.471c-5.563-2.837-15.022-0.555-18.578,4.544c-1.031,1.477-1.885,3.082-2.79,4.646
		c-0.398,0.685-0.698,1.427-1.089,2.118c-1.674,2.99-3.235,6.232-7.478,5.835c-3.579-0.336-7.287-3.811-7.884-7.949
		c-0.402-2.782-0.281-5.791,0.341-8.533c1.295-5.706,4.224-10.734,7.696-15.413c1.68-2.259,3.54-2.828,6.671-2.377
		c6.828,0.979,13.825,1.382,20.729,1.167c15.027-0.47,30.039-1.535,45.061-2.224c5.612-0.258,8.34,3.929,6.139,9.097
		c-0.477,1.123-1.067,2.214-1.681,3.277c-6.012,10.387-12.044,20.758-18.056,31.146c-4.895,8.449-9.778,16.902-14.635,25.368
		c-0.827,1.44-1.568,2.935-2.228,4.462c-1.271,2.948-0.617,4.586,2.598,4.845c4.279,0.342,8.625,0.2,12.916-0.092
		c5.04-0.348,8.534-3.237,10.842-7.627c0.876-1.665,1.764-3.318,2.555-5.024c1.42-3.065,3.514-4.793,7.142-4.355
		c3.541,0.426,6.583,1.857,7.33,5.398c0.73,3.461,0.846,7.179,0.51,10.721c-0.57,5.954-3.058,11.25-6.93,15.863
		c-2.427,2.893-5.281,4.121-9.192,3.403c-3.672-0.681-7.464-0.93-11.207-0.98C493.687,183.336,453.174,183.414,442.684,183.378z"/>
	<path fill-rule="evenodd" clip-rule="evenodd" fill="#1F1B17" d="M20.306,183.804c-3.223-0.289-6.021-1.535-7.552-4.695
		c-1.635-3.384-0.681-7.369,2.669-8.414c5.994-1.866,7.537-6.297,7.618-11.694c0.245-16.052,0.412-32.093,0.509-48.145
		c0.028-4.677-1.598-8.444-6.47-10.198c-2.242-0.808-4.057-2.192-3.972-5.059c0.085-2.839,1.608-4.798,4.032-5.615
		c2.536-0.854,5.323-1.409,7.984-1.355c12.286,0.271,24.562,0.962,36.847,1.159c7.656,0.125,15.328-0.322,22.988-0.604
		c2.302-0.085,4.598-0.443,6.888-0.747c2.023-0.271,3.968-0.199,5.425,1.417c5.366,5.938,7.997,12.872,6.921,20.892
		c-0.592,4.426-3.545,6.958-7.427,6.596c-1.391-0.132-2.937-0.849-4-1.771c-1.896-1.652-3.529-3.619-5.182-5.533
		c-2.62-3.034-5.835-5.003-9.839-5.368c-4.96-0.461-9.935-0.885-14.91-1.043c-3.789-0.119-5.374,1.118-5.987,4.858
		c-0.758,4.62-1.19,9.304-1.54,13.98c-0.192,2.573,1.01,3.958,3.586,4.288c2.136,0.267,4.336,0.28,6.485,0.107
		c2.395-0.192,3.593-1.897,4.214-4.085c0.393-1.39,0.733-2.808,1.304-4.126c0.942-2.165,2.42-3.728,5.026-3.848
		c2.745-0.123,4.718,1.243,5.725,3.529c1.09,2.479,2.019,5.164,2.324,7.837c0.95,8.374,1.143,16.765-1.844,24.854
		c-1.046,2.831-2.549,5.389-5.952,6.001c-3.059,0.545-5.07-0.74-5.709-3.806c-0.308-1.486-0.453-2.999-0.697-4.502
		c-0.873-5.355-7.665-8.783-12.442-6.157c-0.794,0.436-1.578,1.646-1.637,2.545c-0.438,6.71-0.681,13.431,0.809,20.075
		c0.642,2.856,2.261,4.611,5.281,4.878c0.502,0.051,0.999,0.162,1.499,0.247c2.783,0.443,4.577,2.012,5.005,4.384
		c0.503,2.801-0.429,5.614-2.924,6.646c-2.825,1.167-5.886,2.037-8.917,2.382C50.418,184.399,26.274,184.344,20.306,183.804z"/>
	<path fill-rule="evenodd" clip-rule="evenodd" fill="#1F1B17" d="M542.918,183.205c-1.641-0.251-3.295-1.158-4.698-2.119
		c-3.238-2.205-3.436-5.988-0.627-8.704c0.313-0.305,0.613-0.655,0.987-0.842c4.604-2.245,5.828-6.3,5.926-10.974
		c0.256-12.357,0.63-24.717,0.713-37.078c0.023-4.021-0.7-8.046-1.107-12.07c-0.303-3.095-1.931-5.376-4.451-7.1
		c-1.191-0.817-2.407-1.614-3.505-2.556c-2.947-2.53-2.849-6.658,0.566-8.57c2.592-1.454,5.579-2.376,8.507-3.033
		c10.023-2.248,20.171-2.984,30.361-1.355c3.102,0.495,6.169,1.436,9.133,2.499c2.135,0.767,3.472,2.576,3.892,4.875
		c0.384,2.089-0.13,3.879-2.091,5.037c-0.31,0.183-0.59,0.443-0.923,0.562c-5.319,1.922-6.856,6.277-7.167,11.314
		c-0.967,15.973-0.78,31.942,0.311,47.909c0.277,4.033,1.968,6.778,5.753,8.349c2.574,1.074,4.288,3.01,4.185,6
		c-0.107,2.95-1.928,4.792-4.449,5.885c-5.809,2.514-12.038,2.938-18.242,3.364C563.905,184.745,548.467,184.063,542.918,183.205z"
		/>
	<path fill-rule="evenodd" clip-rule="evenodd" fill="#1F1B17" d="M144.814,158.234c3.7,9.377,7.381,18.708,11.074,28.07
		c-15.83,0.377-36.963-9.512-45.679-31.375c-9.494-23.821,0.635-50.085,21.477-62.066c22.677-13.038,49.94-6.353,64.6,12.344
		c15.641,19.951,12.629,45.097,1.442,60.016c-0.668-1.252-1.33-2.457-1.964-3.681c-3.142-6.056-6.264-12.123-9.432-18.166
		c-0.391-0.745-0.36-1.155,0.309-1.729c2.772-2.381,4.577-5.412,5.1-9.006c0.199-1.365-0.129-2.998-0.744-4.246
		c-2.966-6.008-6.004-11.983-9.226-17.858c-2.586-4.717-5.469-9.268-8.256-13.953c-0.768,0.351-1.452,0.66-2.221,1.011
		c4.643,10.19,9.269,20.341,13.931,30.573c-0.952,0.432-1.816,0.825-2.795,1.271c-4.62-10.138-9.256-20.314-13.929-30.565
		c-1.112,0.507-2.112,0.964-3.223,1.468c4.636,10.177,9.273,20.352,13.936,30.587c-0.972,0.441-1.832,0.834-2.82,1.285
		c-4.654-10.209-9.287-20.381-13.949-30.61c-1.068,0.486-2.009,0.917-3.064,1.396c4.635,10.175,9.272,20.352,13.941,30.598
		c-0.971,0.441-1.832,0.836-2.822,1.287c-4.634-10.173-9.27-20.344-13.938-30.587c-1.021,0.466-1.916,0.874-2.916,1.33
		c0.995,3.078,1.907,6.152,2.982,9.172c2.467,6.934,4.961,13.859,7.563,20.747c0.779,2.053,1.89,3.989,2.983,5.902
		c0.399,0.698,1.103,1.322,1.811,1.729c3.163,1.805,6.569,2.465,10.191,1.931c0.263-0.04,0.534-0.042,0.853-0.069
		c0.132,0.29,0.273,0.563,0.384,0.848c3.485,8.795,6.973,17.586,10.416,26.395c0.128,0.328-0.056,0.99-0.33,1.237
		c-6.757,6.112-14.579,10.145-23.536,11.952c-0.687,0.137-0.969-0.065-1.256-0.627c-4.327-8.367-8.668-16.729-13.006-25.09
		c-0.695-1.34-1.4-2.674-2.141-4.089c0.392-0.399,0.736-0.808,1.136-1.148c3.628-3.105,5.264-7.203,5.375-11.815
		c0.187-7.717-1.957-14.723-7.424-20.397c-3.481-3.611-7.735-5.932-12.77-6.599c-6.104-0.812-10.896,1.607-13.826,7.026
		c-3.537,6.543-3.848,13.323-1.008,20.168c2.112,5.097,5.29,9.436,9.913,12.606c3.391,2.326,7.083,3.428,11.208,2.875
		C143.694,158.311,144.233,158.284,144.814,158.234z"/>
	<path fill-rule="evenodd" clip-rule="evenodd" fill="#1F1B17" d="M126.002,133.723c0.229,0.387,0.542,0.747,0.672,1.16
		c0.721,2.317,1.166,4.75,2.135,6.955c2.406,5.47,6.535,9.381,11.804,12.129c0.367,0.189,0.643,0.552,0.961,0.834
		c-0.424,0.167-0.863,0.51-1.272,0.477c-2.833-0.256-5.403-1.208-7.696-2.941c-5.798-4.377-8.095-10.224-7.359-17.356
		c0.041-0.386,0.227-0.761,0.346-1.138C125.729,133.802,125.868,133.762,126.002,133.723z"/>
	<path fill-rule="evenodd" clip-rule="evenodd" fill="#1F1B17" d="M274.291,185.334c0.429-1.352,0.831-2.666,1.265-3.974
		c2.144-6.469,4.31-12.934,6.424-19.414c0.261-0.801,0.577-1.063,1.453-0.987c3.636,0.329,7.063-0.492,10.002-2.629
		c1.113-0.803,2.056-2.181,2.52-3.492c2.233-6.308,4.394-12.65,6.35-19.052c1.572-5.14,2.818-10.372,4.233-15.634l-2.276-0.885
		l-12.169,31.284l-2.858-1.112l12.167-31.28l-3.298-1.283l-12.175,31.3l-2.888-1.124l12.185-31.325l-3.135-1.219l-12.179,31.309
		l-2.888-1.123l12.175-31.297l-2.986-1.162c-1.511,2.858-3.076,5.655-4.489,8.529c-3.242,6.601-6.46,13.213-9.575,19.875
		c-0.927,1.986-1.537,4.135-2.146,6.251c-0.221,0.772-0.179,1.712,0.029,2.501c0.913,3.52,2.813,6.423,5.72,8.639
		c0.214,0.164,0.405,0.35,0.646,0.562c-0.117,0.299-0.216,0.591-0.341,0.865c-3.866,8.625-7.725,17.253-11.63,25.857
		c-0.146,0.322-0.745,0.646-1.111,0.626c-8.203-0.52-15.802-2.844-22.745-7.079c0.763-2.78,1.571-5.547,2.487-8.28
		c2.022-6.026,2.041-12.819,6.561-17.933c5.796-14.901,11.619-29.796,17.329-44.729c0.387-1.006-0.095-2.343-0.172-3.525
		l-1.657-0.645c-0.842,0.678-1.858,1.222-2.501,2.054c-5.546,7.2-11.034,14.443-16.525,21.69c-3.103,4.101-5.211,8.701-5.489,13.834
		c-0.178,3.335,0.152,6.789,0.898,10.042c0.291,1.249,0.625,2.121,0.025,3.31c-3.019,5.94-6.031,11.887-9.042,17.834
		c-0.775-0.733-1.601-1.544-2.448-2.426c-11.306-11.069-18.962-33.09-9.392-54.566c10.432-23.403,36.292-34.462,59.396-27.898
		c25.139,7.142,39.357,31.311,36.196,54.838C312.863,167.565,292.764,182.938,274.291,185.334z"/>
</g>
</svg>
